# xmcd
#
# Track frame offsets: 
#        150
#        13237
#        26347
#        38837
#        49967
#        60462
#        72080
#        82922
#        94577
#        107162
#        120692
#        129915
#        141962
#        152527
#        163847
#        172635
#        180977
#        192262
#        203487
#        214140
#        226517
#
# Disc length: 3210 seconds
#
# Revision: 0
# Processed by: cddbd v1.5PL3 Copyright (c) Steve Scherf et al.
# Submitted via: ExactAudioCopy v0.90b4
#
DISCID=050c8815
DTITLE=Various Artist - The Golden Age Of Country Music - Disc 3
DYEAR=1900
DGENRE=Country
TTITLE0=The Ballad Of Davy Crockett - Tennessee Ernie Ford
TTITLE1=Making Believe - Kitty Wells
TTITLE2=I Walk The Line - Johnny Cash
TTITLE3=Singing The Blues - Marty Robbins
TTITLE4=Live Fast, Live Hard, Die Young - Faron Young
TTITLE5=Crazy Arms - Ray Price
TTITLE6=Gone - Ferlin Husky
TTITLE7=Walkin' After Midnight - Patsy Cline
TTITLE8=Am I Losing You? -Jim Reeves
TTITLE9=My Special Angel - Bobby Helms
TTITLE10=Wake Up, Little Susie - The Everly Brothers
TTITLE11=I Can't Stop Loving You - Don Gibson
TTITLE12=All I Have To Do Is Dream - The Everly Brothers
TTITLE13=Send Me The Pillow You Dream On - Hank Locklin
TTITLE14=Blue, Blue Day - Don Gibson
TTITLE15=Guess Things Happen That Way - Johnny Cash
TTITLE16=The Battle Of New Orleans - Johnny Horton
TTITLE17=Waterloo - Stonewall Jackson
TTITLE18=He'll Have To Go - Jim Reeves
TTITLE19=Three Hearts In A Tangle - Roy Drusky
TTITLE20=I Dreamed Of A Hillbilly Heaven - Tex Ritter
EXTD=
EXTT0=
EXTT1=
EXTT2=
EXTT3=
EXTT4=
EXTT5=
EXTT6=
EXTT7=
EXTT8=
EXTT9=
EXTT10=
EXTT11=
EXTT12=
EXTT13=
EXTT14=
EXTT15=
EXTT16=
EXTT17=
EXTT18=
EXTT19=
EXTT20=
PLAYORDER=
